<svg xmlns="http://www.w3.org/2000/svg" viewBox="0 0 40 40"><defs><style>.cls-1{fill:#16325c;}.cls-2{fill:#fff;}</style></defs><g id="icon_inverse"><rect class="cls-1" width="40" height="40" rx="4"/><path class="cls-2" d="M8,19.17c0-8,4.41-13.08,11.33-13.08s11.33,5.08,11.33,13.08S26.29,32.26,19.34,32.26,8,27.2,8,19.17Zm21.24,0C29.25,12,25.39,7.4,19.34,7.4S9.44,12,9.44,19.17,13.3,31,19.34,31,29.25,26.38,29.25,19.17Z"/><path class="cls-2" d="M21.9,12.13H18a1.37,1.37,0,0,0-1.29.87l-2.43,6.26a.7.7,0,0,0,.65.95h4l-1.48,5.17a.45.45,0,0,0,.79.41l6.07-7.2a.7.7,0,0,0-.53-1.16h-3l2.63-4.24a.7.7,0,0,0-.6-1.06Z"/><rect class="cls-2" x="28.55" y="26.96" width="1.39" height="7.7" rx="0.7" transform="translate(-13 26.33) rotate(-40.44)"/></g></svg>