<svg xmlns="http://www.w3.org/2000/svg" width="56" height="64" viewBox="0 0 56 64"><path d="M5.113-.03c-2.803 0-5.074 2.273-5.074 5.074v53.841c0 2.803 2.271 5.075 5.074 5.075h45.774c2.801 0 5.073-2.272 5.073-5.075v-38.605l-18.901-20.31h-31.946z" fill-rule="evenodd" clip-rule="evenodd" fill="#14A9DA"/><g fill-rule="evenodd" clip-rule="evenodd"><path d="M55.977 20.352v1h-12.799s-6.312-1.26-6.129-6.707c0 0 .208 5.707 6.004 5.707h12.924z" fill="#0F93D0"/><path d="M37.074 0v14.561c0 1.656 1.104 5.791 6.104 5.791h12.799l-18.903-20.352z" opacity=".5" fill="#fff"/></g><path d="M14.244 53.863h-3.025c-.594 0-1.08-.486-1.08-1.081v-9.849c0-.594.486-1.081 1.08-1.081h3.025c3.727 0 6.158 2.611 6.158 6.015 0 3.421-2.431 5.996-6.158 5.996zm0-10.677h-2.611v9.345h2.611c2.917 0 4.609-2.088 4.609-4.663.001-2.594-1.638-4.682-4.609-4.682zm14.418 10.893c-3.564 0-5.959-2.665-5.959-6.212 0-3.547 2.395-6.212 5.959-6.212 3.548 0 5.961 2.665 5.961 6.212 0 3.547-2.413 6.212-5.961 6.212zm0-11.092c-2.7 0-4.41 2.071-4.41 4.88 0 2.791 1.71 4.879 4.41 4.879 2.684 0 4.412-2.089 4.412-4.879 0-2.809-1.728-4.88-4.412-4.88zm18.451.379c.127.144.198.324.198.522 0 .378-.306.721-.702.721-.18 0-.378-.072-.504-.234-.702-.846-1.891-1.387-3.007-1.387-2.629 0-4.628 2.017-4.628 4.88 0 2.845 1.999 4.879 4.628 4.879 1.134 0 2.251-.486 3.007-1.369.126-.144.324-.234.504-.234.414 0 .702.36.702.739 0 .18-.071.359-.198.503-.936.972-2.215 1.693-4.015 1.693-3.457 0-6.176-2.521-6.176-6.212s2.719-6.212 6.176-6.212c1.8 0 3.097.721 4.015 1.711z" fill="#fff"/></svg>