<svg xmlns="http://www.w3.org/2000/svg" viewBox="0 0 250 60"><defs><style>.cls-1{fill:#fff;}</style></defs><g id="logo_white"><path class="cls-1" d="M3.34,18V3.87a.38.38,0,0,1,.4-.43.39.39,0,0,1,.41.43V17.64h7.47a.38.38,0,1,1,0,.75H3.74A.39.39,0,0,1,3.34,18Z"/><path class="cls-1" d="M16.83,18.19l-4-14.14a1.05,1.05,0,0,1,0-.24.36.36,0,0,1,.4-.37.39.39,0,0,1,.4.34L17.24,17h.05L21.11,3.83c.09-.28.21-.39.45-.39s.36.11.44.37L25.83,17h.05l3.64-13.2a.4.4,0,0,1,.41-.34.37.37,0,0,1,.4.37,1,1,0,0,1-.06.3l-4,14.08c-.07.24-.19.35-.41.35a.4.4,0,0,1-.42-.35L21.58,5.11h0L17.66,18.19a.4.4,0,0,1-.42.35C17,18.54,16.9,18.43,16.83,18.19Z"/><path class="cls-1" d="M31.28,10.9c0-4.6,2.53-7.52,6.51-7.52a5.72,5.72,0,0,1,5.66,4.25,2.08,2.08,0,0,1,.08.47.35.35,0,0,1-.36.39c-.21,0-.35-.1-.43-.36a5,5,0,0,0-5-4c-3.47,0-5.68,2.61-5.68,6.76s2.24,6.94,5.68,6.94a4.73,4.73,0,0,0,5-3.79c.07-.21.18-.33.37-.33a.37.37,0,0,1,.38.4,1.85,1.85,0,0,1-.09.54c-.57,2.37-2.78,3.94-5.63,3.94C33.82,18.6,31.28,15.61,31.28,10.9Z"/><path class="cls-1" d="M3.47,47a7.07,7.07,0,0,1-.13-1c0-.61.32-1,.84-1s.77.25.89.8C5.66,50,9.78,52.81,15.2,52.81c5.58,0,9.47-3,9.47-7.36,0-3.55-2.37-5.51-8.08-6.85l-3.49-.82c-6.42-1.5-9-4.05-9-8.4,0-5.14,4.78-8.72,10.74-8.72,5.4,0,9.79,2.78,10.82,7a3.85,3.85,0,0,1,.09.91.81.81,0,0,1-.84.89c-.48,0-.75-.28-.87-.8-.64-3.76-4.37-6.31-9.22-6.31s-8.9,2.76-8.9,7c0,3.5,2.39,5.5,7.76,6.78l3.49.8c6.64,1.57,9.35,3.91,9.35,8.35,0,5.49-4.59,9.2-11.38,9.2C8.92,54.47,4.48,51.35,3.47,47Z"/><path class="cls-1" d="M28.87,37.55c0-10.33,5.69-16.89,14.64-16.89s14.64,6.56,14.64,16.89S52.48,54.47,43.51,54.47,28.87,47.93,28.87,37.55Zm27.44,0c0-9.29-5-15.2-12.8-15.2s-12.79,5.91-12.79,15.2,5,15.23,12.79,15.23S56.31,46.86,56.31,37.55Z"/><path class="cls-1" d="M60.74,37.55c0-10.33,5.69-16.89,14.64-16.89S90,27.22,90,37.55,84.35,54.47,75.38,54.47,60.74,47.93,60.74,37.55Zm27.43,0c0-9.29-5-15.2-12.79-15.2s-12.8,5.91-12.8,15.2,5,15.23,12.8,15.23S88.17,46.86,88.17,37.55Z"/><path class="cls-1" d="M94,53V21.75a.85.85,0,0,1,.89-.95.87.87,0,0,1,.91.95V52.33h16.6a.83.83,0,1,1,0,1.66H94.88A.86.86,0,0,1,94,53Z"/><path class="cls-1" d="M125.87,53V22.09a.85.85,0,0,1,.89-.95h10.06c5.72,0,9.59,3.23,9.59,8a7.64,7.64,0,0,1-6.47,7.7V37c4.64.5,8.2,3.51,8.2,8.27,0,5.37-4.19,8.76-11.09,8.76H126.76A.86.86,0,0,1,125.87,53Zm10.25-16.75c5.14,0,8.46-2.69,8.46-7,0-4-3.14-6.49-8-6.49h-8.88v13.5Zm.77,16.07c5.92,0,9.42-2.75,9.42-7.17s-3.66-7.29-9.9-7.29h-8.74V52.35Z"/><path class="cls-1" d="M151.38,45.73V30.91a.88.88,0,1,1,1.76,0V45.45c0,4.62,2.84,7.31,7.15,7.31,4.48,0,7.87-3.23,7.87-8.24V30.91a.89.89,0,1,1,1.78,0V53.44a.81.81,0,0,1-.82.91.83.83,0,0,1-.84-.91V48.85h-.07a8.57,8.57,0,0,1-8.29,5.5C154.82,54.35,151.38,51,151.38,45.73Z"/><path class="cls-1" d="M174.42,23.1a1.39,1.39,0,0,1,2.77,0,1.39,1.39,0,1,1-2.77,0Zm.5,30.3V30.91a.89.89,0,1,1,1.77,0V53.4a.89.89,0,1,1-1.77,0Z"/><path class="cls-1" d="M181.87,53.4V21.73a.89.89,0,1,1,1.78,0V53.4a.89.89,0,1,1-1.78,0Z"/><path class="cls-1" d="M187.44,42.15c0-7.28,4.14-12.2,10.06-12.2a9.11,9.11,0,0,1,8.86,6.58h0V21.73a.88.88,0,0,1,.87-1,.9.9,0,0,1,.91,1V53.44a.84.84,0,0,1-.86.91.87.87,0,0,1-.92-.91V47.68h0a9,9,0,0,1-8.83,6.67C191.61,54.35,187.44,49.44,187.44,42.15Zm19,0c0-6.28-3.6-10.61-8.68-10.61s-8.53,4.26-8.53,10.59,3.5,10.63,8.53,10.63S206.43,48.44,206.43,42.15Z"/><path class="cls-1" d="M212,42.27C212,34.75,216.12,30,222.38,30c6,0,10.15,4.58,10.15,11.27a1.13,1.13,0,0,1-1.25,1.23H213.8c0,6.53,3.43,10.33,8.81,10.33,3.91,0,6.8-1.91,7.94-5.23a.74.74,0,0,1,.73-.53.77.77,0,0,1,.8.8,2.48,2.48,0,0,1-.14.64c-1.14,3.62-4.69,5.89-9.27,5.89C216.09,54.35,212,49.87,212,42.27ZM230.71,41c0-5.63-3.37-9.45-8.33-9.45s-8.31,3.76-8.56,9.45Z"/><path class="cls-1" d="M236.1,53.4V30.86a.83.83,0,1,1,1.66,0V35h.05c.93-3.19,3.25-5,6.17-5a4.79,4.79,0,0,1,2.11.41.88.88,0,0,1,.57.8.66.66,0,0,1-.43.66c-.48.09-1-.19-2.3-.19-3.89,0-6.06,3.26-6.06,7.63V53.4a.89.89,0,1,1-1.77,0Z"/><path class="cls-1" d="M78.68,28.45h-5A1.79,1.79,0,0,0,72,29.59l-3.13,8.08a.89.89,0,0,0,.84,1.22h5.13L72.9,45.57a.58.58,0,0,0,1,.54l7.85-9.31a.91.91,0,0,0-.69-1.49H77.19l3.4-5.48a.91.91,0,0,0-.77-1.38Z"/><rect class="cls-1" x="87.27" y="47.62" width="1.8" height="9.95" rx="0.82" transform="translate(-13.05 69.76) rotate(-40.44)"/></g></svg>